# xmcd
#
# Track frame offsets: 
#        182
#        18385
#        39937
#        58352
#        77052
#        83512
#        102002
#        125412
#        136255
#        156235
#        172967
#        193185
#        215622
#        242487
#        265630
#
# Disc length: 3627 seconds
#
# Revision: 5
# Processed by: cddbd v1.5.2PL0 Copyright (c) Steve Scherf et al.
# Submitted via: ExactAudioCopy v1.0b3
#
DISCID=bf0e290f
DTITLE=Whitehead Bros. - Serious
DYEAR=1994
DGENRE=R&B
TTITLE0=Forget I Was A "G"
TTITLE1=Your Love Is A 187
TTITLE2=Shaniqua
TTITLE3=Change
TTITLE4=Interlude
TTITLE5=Late Nite Tip
TTITLE6=Just A Touch Of Love
TTITLE7=Where Ya At? (Interlude)
TTITLE8=Serious
TTITLE9=Beautiful Black Princess
TTITLE10=Sex On The Beach
TTITLE11=Turn U Out
TTITLE12=She Needed Me
TTITLE13=Love Goes On
TTITLE14=Black Princess (Reprise)
EXTD=youngstown 4 lyfe. poopy
EXTT0=
EXTT1=
EXTT2=
EXTT3=
EXTT4=
EXTT5=
EXTT6=
EXTT7=
EXTT8=
EXTT9=
EXTT10=
EXTT11=
EXTT12=
EXTT13=
EXTT14=
PLAYORDER=
